<svg width="128.000000" height="128.000000" viewBox="0 0 128 128" fill="none" xmlns="http://www.w3.org/2000/svg" xmlns:xlink="http://www.w3.org/1999/xlink">
	<desc>
			Created with Pixso.
	</desc>
	<defs>
		<clipPath id="clip24_23">
			<rect id="favicon" width="128.000000" height="128.000000" fill="white"/>
		</clipPath>
	</defs>
	<g clip-path="url(#clip24_23)">
		<rect id="矩形 6" rx="16.000000" width="128.000000" height="128.000000" fill="#018EF9"/>
		<path id="矢量 47" d="M87.2972 46C95.0675 46 102.519 49.0867 108.014 54.581C113.508 60.0753 116.594 67.5271 116.594 75.2972C116.602 79.8519 115.542 84.3445 113.501 88.4163L121.097 96.015C121.675 96.5933 122 97.3775 122 98.1954C122 99.0132 121.675 99.7975 121.097 100.376L112.376 109.097C111.797 109.675 111.013 110 110.195 110C109.378 110 108.593 109.675 108.015 109.097L100.416 101.501C96.3446 103.542 91.8519 104.602 87.2972 104.595C79.5271 104.595 72.0753 101.508 66.5809 96.0135C61.0867 90.5192 58 83.0675 58 75.2972C58 67.5271 61.0867 60.0753 66.5809 54.581C72.0753 49.0867 79.5271 46 87.2972 46L87.2972 46ZM103.651 87.2875L99.2906 91.6482L110.195 102.55L114.556 98.1892L103.651 87.2875L103.651 87.2875ZM109.4 68.4602L80.4602 97.3997C82.6189 98.0658 84.9165 98.4267 87.2972 98.4267C90.1887 98.4304 93.0553 97.8907 95.7472 96.8354L92.7496 93.8316C92.1714 93.2534 91.8467 92.4691 91.8467 91.6513C91.8467 90.8334 92.1714 90.0492 92.7496 89.4709L101.471 80.7496C102.049 80.1714 102.833 79.8466 103.651 79.8466C104.469 79.8466 105.253 80.1714 105.832 80.7496L108.835 83.7472C109.891 81.0552 110.43 78.1887 110.427 75.2972C110.427 72.9165 110.066 70.622 109.4 68.4602ZM87.2972 52.1678C82.325 52.1673 77.4849 53.7692 73.4946 56.7359C69.5044 59.7026 66.5764 63.8762 65.1448 68.6379C63.7133 73.3997 63.8542 78.4959 65.547 83.1711C67.2396 87.8466 70.3939 91.8517 74.5421 94.5934L106.593 62.5421C104.486 59.3515 101.62 56.7335 98.2529 54.9229C94.8853 53.1123 91.1207 52.1656 87.2972 52.1678L87.2972 52.1678Z" fill-rule="evenodd" fill="#010101"/>
		<path id="矢量 91" d="M68.7507 73.287C68.9558 81.0546 66.0669 88.5851 60.7195 94.2225C55.3721 99.8599 48.0043 103.142 40.2368 103.347C35.684 103.474 31.1649 102.534 27.0408 100.601L19.645 108.395C19.0823 108.988 18.3069 109.333 17.4894 109.355C16.6718 109.377 15.8793 109.073 15.2859 108.51L6.33752 100.022C5.74426 99.459 5.39893 98.6836 5.37732 97.8661C5.35571 97.0485 5.65967 96.256 6.22241 95.6627L13.615 87.8661C11.4673 83.8497 10.2898 79.3865 10.1766 74.8333C9.97168 67.0659 12.8606 59.5351 18.208 53.8978C23.5554 48.2604 30.9231 44.9781 38.6907 44.7731C46.458 44.5681 53.9888 47.457 59.6261 52.8044C65.2635 58.1518 68.5458 65.5196 68.7507 73.287L68.7507 73.287ZM27.9092 90.7249L23.4349 86.4808L12.8248 97.6695L17.2991 101.914L27.9092 90.7249L27.9092 90.7249ZM46.8816 95.9745L17.1885 67.8087C16.5796 69.9843 16.2795 72.2906 16.3424 74.6705C16.4149 77.5611 17.0302 80.4124 18.1561 83.0755L21.0797 79.9997C21.6425 79.4064 22.4178 79.0611 23.2355 79.0396C24.053 79.0179 24.8456 79.3219 25.4388 79.8846L34.3873 88.3728C34.9806 88.9356 35.3259 89.711 35.3474 90.5285C35.369 91.3461 35.0651 92.1387 34.5023 92.732L31.5851 95.8138C34.304 96.7977 37.1837 97.2615 40.0741 97.1815C42.454 97.1187 44.7382 96.6974 46.8816 95.9745Z" fill-rule="evenodd" fill="#E02020"/>
		<circle id="椭圆 3" r="6.000000" transform="matrix(1 0 0 1 64 29)" fill="#FFFFFF"/>
	</g>
</svg>
